<svg xmlns="http://www.w3.org/2000/svg" xmlns:xlink="http://www.w3.org/1999/xlink" version="1.1" x="0px" y="0px" viewBox="0 0 100 100" enable-background="new 0 0 100 100" xml:space="preserve"><g><path fill="#000000" d="M20.42,70.85c3.27,0,6.24,1.351,8.39,3.53c0.21,0.21,0.41,0.431,0.6,0.649h31.05V23.68H6.58v51.349h4.86   c0.19-0.229,0.39-0.439,0.6-0.659c2.15-2.181,5.12-3.53,8.39-3.53L20.42,70.85z M70.24,78.7c2.359,0,4.26,1.95,4.26,4.3   s-1.9,4.3-4.26,4.3c-2.36,0-4.26-1.95-4.26-4.3S67.88,78.7,70.24,78.7z M70.24,81.7c-0.721,0-1.26,0.59-1.26,1.3   s0.539,1.3,1.26,1.3c0.72,0,1.26-0.59,1.26-1.3S70.96,81.7,70.24,81.7z M70.24,70.99c3.27,0,6.24,1.35,8.39,3.529   c0.17,0.17,0.33,0.34,0.479,0.521H93.98V68.6h-3.57c-0.41,0-0.79-0.17-1.061-0.439c-0.59-0.59-0.59-1.53,0-2.12   C89.62,65.77,90,65.6,90.41,65.6h3.57v-2.379c0-0.601-0.36-1.171-0.851-1.711c-0.899-0.97-2.239-1.83-3.34-2.619H69.859   c-2.08-0.351-3.77-1.92-3.979-4.07V43.4h-2.43v29.75c1.92-1.36,4.26-2.16,6.78-2.16H70.24z M81.04,78.04   c0.58,1.29,0.94,2.71,1.03,4.2H95.3c0.07,0,0.14-0.07,0.14-0.141v-3.91c0-0.08-0.06-0.14-0.14-0.14H81.04V78.04z M81.891,85.24   c-0.451,2.41-1.611,4.57-3.261,6.24c-2.149,2.18-5.12,3.529-8.39,3.529S64,93.66,61.85,91.48c-1.649-1.67-2.81-3.83-3.26-6.24   H32.05c-0.47,2.359-1.62,4.47-3.24,6.109c-2.15,2.18-5.12,3.53-8.39,3.53s-6.24-1.351-8.39-3.53c-1.62-1.64-2.77-3.75-3.23-6.109   H6.6c-1.39,0-2.62-0.93-3.02-2.26c0-20.76,0-41.521,0-62.291c19.96,0,39.92,0,59.88,0V40.4h14.55c2.19,0,3.28,1.22,4.04,2.46   L89.52,55c1.801,1.29,4.33,2.88,5.811,4.46c0.97,1.04,1.66,2.261,1.66,3.75v12.319c0.189,0.121,0.369,0.271,0.529,0.431l0.01,0.011   c0.57,0.569,0.921,1.359,0.921,2.219v3.91c0,1.73-1.421,3.141-3.14,3.141H81.9H81.891z M58.4,82.24c0.09-1.49,0.449-2.9,1.029-4.2   H31.27c0.56,1.3,0.91,2.71,0.98,4.2h26.141H58.4z M76.49,76.62c-1.6-1.62-3.811-2.63-6.26-2.63c-2.451,0-4.66,1-6.26,2.63   c-1.611,1.63-2.601,3.89-2.601,6.38c0,2.5,0.989,4.75,2.601,6.38c1.6,1.62,3.809,2.63,6.26,2.63c2.449,0,4.66-1,6.26-2.63   c1.609-1.63,2.6-3.89,2.6-6.38C79.09,80.5,78.1,78.25,76.49,76.62z M68.88,43.41v11.3c0.149,0.64,0.63,0.96,1.21,1.19h16.439   L79.48,44.44c-0.221-0.36-0.561-1.03-1.49-1.03h-9.12H68.88z M20.41,78.57c1.18,0,2.24,0.49,3.02,1.27   c0.77,0.78,1.24,1.85,1.24,3.03c0,1.18-0.47,2.25-1.24,3.03c-0.77,0.779-1.84,1.27-3.02,1.27c-1.18,0-2.24-0.49-3.02-1.27   c-0.77-0.78-1.24-1.851-1.24-3.03c0-1.181,0.47-2.25,1.24-3.03C18.16,79.061,19.23,78.57,20.41,78.57z M20.41,81.57   c-0.72,0-1.26,0.59-1.26,1.3s0.54,1.3,1.26,1.3c0.72,0,1.26-0.59,1.26-1.3S21.13,81.57,20.41,81.57z M8.57,82.24   c0.08-1.49,0.42-2.9,0.98-4.2H6.58c-0.08,0-0.14,0.06-0.14,0.14v3.91c0,0.07,0.07,0.141,0.14,0.141h1.99V82.24z M26.67,76.48   c-1.6-1.621-3.81-2.631-6.26-2.631c-2.45,0-4.66,0.5-6.26,2.131c-1.61,1.629-2.6,4.39-2.6,6.879c0,2.5,0.99,4.75,2.6,6.381   c1.6,1.619,3.81,2.63,6.26,2.63c2.45,0,4.66-1,6.26-2.63c1.61-1.631,2.6-3.891,2.6-6.381C29.27,80.359,28.28,78.109,26.67,76.48z"></path></g></svg>