<?xml version="1.0" encoding="UTF-8"?>
<svg width="86px" height="86px" viewBox="0 0 86 86" version="1.1" xmlns="http://www.w3.org/2000/svg" xmlns:xlink="http://www.w3.org/1999/xlink">
    <!-- Generator: Sketch 3.7.2 (28276) - http://www.bohemiancoding.com/sketch -->
    <title>Group</title>
    <desc>Created with Sketch.</desc>
    <defs></defs>
    <g id="Page-1" stroke="none" stroke-width="1" fill="none" fill-rule="evenodd">
        <g id="Group">
            <rect id="Rectangle-1" fill="#FFFFFF" x="0" y="0" width="86" height="86"></rect>
            <g id="background" transform="translate(12.000000, 9.000000)" fill="#000000">
                <path d="M59.7034884,62.707 L40.4372093,62.707 C42.2686047,61.393 43.8802326,59.495 45.1988372,57.305 L52.3046512,57.305 C52.6709302,57.305 53.0372093,57.086 53.1837209,56.721 C53.3302326,56.356 53.2569767,55.991 52.9639535,55.699 C51.7186047,54.458 51.1325581,53.217 51.2790698,52.049 C51.4255814,50.224 53.1837209,48.983 53.1837209,48.983 C53.1837209,48.983 53.2569767,48.983 53.2569767,48.91 L59.85,43.362 C63.4395349,40.369 63.8790698,34.967 60.8755814,31.39 C58.8244186,28.981 55.6744186,27.959 52.6709302,28.543 C52.744186,28.032 52.744186,27.74 52.744186,27.594 C52.744186,27.375 52.6709302,27.083 52.5244186,26.937 C52.377907,26.791 52.0848837,26.645 51.8651163,26.645 L9.01046512,26.645 C8.79069767,26.645 8.49767442,26.718 8.35116279,26.937 C8.20465116,27.156 8.05813953,27.521 8.05813953,27.74 C8.13139535,29.054 9.9627907,55.48 20.3651163,62.707 L1.09883721,62.707 C0.805813953,62.707 0.512790698,62.853 0.36627907,63.072 C0.219767442,63.291 0.146511628,63.656 0.219767442,63.875 C0.439534884,64.532 2.1244186,67.16 12.6,68.62 L12.6,69.423 C12.6,71.102 13.9918605,72.489 15.6767442,72.489 L44.9790698,72.489 C46.6639535,72.489 48.055814,71.102 48.055814,69.423 L48.055814,68.62 C58.6046512,67.16 60.2162791,64.605 60.4360465,63.875 C60.5093023,63.583 60.5093023,63.291 60.2895349,63.072 C60.2895349,62.853 59.9965116,62.707 59.7034884,62.707 L59.7034884,62.707 Z M52.4511628,30.66 C55.0151163,29.93 57.7255814,30.733 59.4837209,32.777 C61.827907,35.624 61.4616279,39.785 58.677907,42.121 L52.0848837,47.596 C51.7186047,47.815 49.6674419,49.421 49.4476744,51.903 C49.3011628,53.071 49.6674419,54.312 50.4,55.407 L46.1511628,55.407 C47.5430233,52.706 48.5686047,49.64 49.4476744,46.574 L57.0662791,40.15 C58.8976744,38.617 59.1174419,35.916 57.5790698,34.091 C56.1872093,32.485 53.8430233,32.12 52.0848837,33.215 C52.2313953,32.339 52.377907,31.39 52.4511628,30.66 L52.4511628,30.66 Z M52.744186,35.113 C53.7697674,34.237 55.3081395,34.383 56.1872093,35.405 C57.0662791,36.427 56.9197674,37.96 55.894186,38.836 L50.2534884,43.581 C50.9127907,40.88 51.3523256,38.252 51.7186047,35.916 L52.744186,35.113 L52.744186,35.113 Z M12.8930233,45.479 C10.9883721,38.398 10.255814,31.171 10.0360465,28.616 L28.8627907,28.616 L28.8627907,41.391 L27.2511628,41.391 C27.0313953,41.391 26.8116279,41.464 26.5918605,41.683 L23.222093,45.041 C23.0755814,45.187 22.9290698,45.479 22.9290698,45.698 L22.9290698,54.02 C22.9290698,54.531 23.3686047,54.896 23.8081395,54.896 L35.5290698,54.896 C36.0418605,54.896 36.4081395,54.458 36.4081395,54.02 L36.4081395,45.625 C36.4081395,45.406 36.3348837,45.187 36.1151163,44.968 L32.8918605,41.61 C32.7453488,41.464 32.4523256,41.318 32.2325581,41.318 L30.6209302,41.318 L30.6209302,28.616 L50.7662791,28.616 C50.5465116,31.171 49.8139535,38.325 47.9093023,45.479 C45.7848837,53.363 41.755814,62.707 34.7965116,62.707 L26.005814,62.707 C18.9732558,62.707 14.944186,53.363 12.8930233,45.479 L12.8930233,45.479 Z M31.8662791,43.216 L34.65,45.99 L34.65,53.071 L24.7604651,53.071 L24.7604651,45.99 L27.544186,43.216 L31.8662791,43.216 L31.8662791,43.216 Z M46.2976744,69.496 C46.2976744,70.226 45.7116279,70.81 44.9790698,70.81 L15.6767442,70.81 C14.944186,70.81 14.3581395,70.226 14.3581395,69.496 L14.3581395,68.912 C18.3872093,69.35 23.5883721,69.642 30.2546512,69.642 C36.9209302,69.642 42.122093,69.35 46.1511628,68.912 L46.1511628,69.496 L46.2976744,69.496 Z M30.4011628,67.817 C13.5523256,67.817 6.59302326,65.846 3.73604651,64.532 L56.9930233,64.532 C54.1360465,65.919 47.1767442,67.817 30.4011628,67.817 L30.4011628,67.817 Z" id="Shape"></path>
                <path d="M30.2546512,17.812 C30.2546512,19.71 29.8883721,21.462 29.155814,22.922 C28.9360465,23.36 29.155814,23.944 29.5953488,24.163 C29.7418605,24.236 29.8883721,24.236 29.9616279,24.236 C30.327907,24.236 30.6209302,24.017 30.7674419,23.725 C31.5732558,22.046 32.0127907,20.002 32.0127907,17.812 C32.0127907,15.622 31.5732558,13.578 30.7674419,11.899 C30.1081395,10.512 29.6686047,8.687 29.6686047,6.789 C29.6686047,4.891 30.0348837,3.139 30.7674419,1.679 C30.9872093,1.241 30.7674419,0.657 30.327907,0.438 C29.8883721,0.219 29.3023256,0.438 29.0825581,0.876 C28.2767442,2.555 27.8372093,4.599 27.8372093,6.789 C27.8372093,8.906 28.2767442,11.023 29.0825581,12.702 C29.8883721,14.162 30.2546512,15.914 30.2546512,17.812 L30.2546512,17.812 Z" id="Shape"></path>
                <path d="M23.9546512,20.002 C24.1011628,20.002 24.2476744,20.002 24.3209302,19.929 C24.7604651,19.71 24.9802326,19.126 24.7604651,18.688 C24.1011628,17.301 23.6616279,15.476 23.6616279,13.578 C23.6616279,11.68 24.027907,9.928 24.7604651,8.468 C24.9802326,8.03 24.7604651,7.446 24.3209302,7.227 C23.8813953,7.008 23.2953488,7.227 23.0755814,7.665 C22.2697674,9.344 21.8302326,11.388 21.8302326,13.578 C21.8302326,15.768 22.2697674,17.812 23.0755814,19.491 C23.2953488,19.856 23.5883721,20.002 23.9546512,20.002 L23.9546512,20.002 Z" id="Shape"></path>
                <path d="M37.1406977,20.294 C37.2872093,20.367 37.4337209,20.367 37.5069767,20.367 C37.8732558,20.367 38.1662791,20.148 38.3127907,19.856 C39.1186047,18.177 39.5581395,16.133 39.5581395,13.943 C39.5581395,11.826 39.1186047,9.709 38.3127907,8.03 C38.0930233,7.592 37.5069767,7.373 37.0674419,7.592 C36.627907,7.811 36.4081395,8.395 36.627907,8.833 C37.2872093,10.22 37.7267442,12.045 37.7267442,13.943 C37.7267442,15.841 37.3604651,17.593 36.627907,19.053 C36.5546512,19.491 36.7011628,20.075 37.1406977,20.294 L37.1406977,20.294 Z" id="Shape"></path>
            </g>
        </g>
    </g>
</svg>