<svg xmlns="http://www.w3.org/2000/svg" xmlns:xlink="http://www.w3.org/1999/xlink" version="1.1" x="0px" y="0px" viewBox="0 0 100 100" enable-background="new 0 0 100 100" xml:space="preserve"><rect x="5" y="5" fill="none" width="90" height="90"></rect><g><path d="M84.077,58.618c3.569,0,6.473-2.904,6.473-6.474c0-3.568-2.903-6.473-6.473-6.473s-6.474,2.904-6.474,6.473   C77.604,55.714,80.508,58.618,84.077,58.618z M84.077,47.339c2.65,0,4.806,2.156,4.806,4.806c0,2.65-2.155,4.807-4.806,4.807   s-4.807-2.156-4.807-4.807C79.271,49.495,81.427,47.339,84.077,47.339z"></path><path d="M71.119,65.565l0.14-1.034l5.254-3.325c2.12,1.774,4.772,2.742,7.564,2.742c6.508,0,11.803-5.295,11.803-11.804   c0-6.508-5.295-11.803-11.803-11.803c-3.538,0-6.808,1.536-9.058,4.235h-1.049l0.712-5.238c0.045-0.333-0.056-0.668-0.276-0.921   c-0.221-0.253-0.54-0.398-0.876-0.398H21.577c-0.335,0-0.655,0.145-0.875,0.398c-0.221,0.252-0.322,0.588-0.276,0.921l3.563,26.227   c0.652,4.79,4.276,8.573,8.955,9.482l0.205,1.505H5.283c-0.344,0-0.67,0.151-0.891,0.415c-0.221,0.264-0.314,0.611-0.254,0.949   c0.416,2.35,2.243,4.138,4.52,4.557l0.35,2.572c-0.025,0.607,0.422,1.133,1.028,1.203l15.973,1.845   c0.044,0.005,0.089,0.008,0.133,0.008h42.824c0.044,0,0.089-0.003,0.133-0.008l15.973-1.845c0.605-0.07,1.054-0.596,1.028-1.203   l0.35-2.572c2.277-0.419,4.104-2.207,4.52-4.557c0.061-0.338-0.033-0.686-0.254-0.949s-0.547-0.415-0.891-0.415H61.959l0.204-1.505   C66.843,74.139,70.466,70.355,71.119,65.565z M69.028,63.681L69.028,63.681l-0.214,1.571c-0.068,0.505-0.179,0.995-0.327,1.468   c-0.06,0.191-0.128,0.379-0.2,0.563c-1.178,3.022-3.947,5.22-7.287,5.593l-0.36,0.04c-0.318,0.035-0.571,0.282-0.614,0.599   l-0.049,0.359l0,0l-0.071,0.525l-0.419,3.083H35.621l-0.137-1.002l-0.354-2.606c0,0-0.001,0-0.001-0.001l-0.049-0.358   c-0.043-0.316-0.296-0.563-0.613-0.599l-0.36-0.04l0,0c-0.119-0.014-0.237-0.029-0.354-0.048c-0.008-0.001-0.016-0.001-0.023-0.003   c-0.308-0.047-0.609-0.112-0.906-0.19c-0.546-0.143-1.071-0.335-1.57-0.573c-0.003-0.001-0.006-0.003-0.009-0.005   c-0.327-0.156-0.642-0.332-0.945-0.525c-2.139-1.369-3.647-3.63-4.008-6.279l-3.384-24.907h17.464v4.78h-1.605   c-0.257,0-0.465,0.208-0.465,0.465v1.672h-1.804c-0.186,0-0.363,0.074-0.493,0.205L32.6,50.871   c-0.131,0.13-0.204,0.308-0.204,0.492v9.145c0,0.186,0.073,0.362,0.204,0.493l3.405,3.404c0.13,0.131,0.308,0.204,0.493,0.204   h9.144c0.186,0,0.363-0.073,0.493-0.204l3.404-3.404c0.131-0.131,0.205-0.308,0.205-0.493v-9.145c0-0.185-0.074-0.362-0.205-0.492   l-3.404-3.404c-0.13-0.131-0.308-0.205-0.493-0.205h-1.804V45.59c0-0.257-0.208-0.465-0.465-0.465h-1.605v-4.78h30.432   l-0.627,4.616L69.028,63.681z M45.354,48.657l2.995,2.995v8.566l-2.995,2.996h-8.567l-2.995-2.996v-8.566l2.995-2.995H45.354z    M42.907,47.262h-3.675v-1.207h3.675V47.262z M75.58,46.902c0.364,0,0.708-0.172,0.928-0.463c1.811-2.397,4.569-3.772,7.569-3.772   c5.226,0,9.478,4.252,9.478,9.478c0,5.227-4.252,9.479-9.478,9.479c-2.492,0-4.846-0.96-6.627-2.703   c-0.386-0.377-0.979-0.439-1.435-0.151l-5.374,3.402l2.074-15.269H75.58z M85.421,80.242c-0.581,0-1.073,0.43-1.151,1.006   l-0.38,2.797l-14.991,1.731h-42.69l-14.991-1.731l-0.38-2.797c-0.079-0.576-0.57-1.006-1.152-1.006   c-1.093,0-2.075-0.529-2.681-1.365h2.083h25.391h26.149h27.474C87.496,79.713,86.514,80.242,85.421,80.242z"></path><path d="M37.541,27.21c0,1.256-0.545,1.814-1.447,2.739l-0.009,0.008c-0.134,0.138-0.268,0.275-0.4,0.415l-0.957,1.015   c-0.211,0.224-0.201,0.577,0.022,0.789l2.029,1.915c0.107,0.102,0.245,0.152,0.383,0.152c0.148,0,0.296-0.059,0.406-0.175   l0.957-1.015c0.116-0.123,0.234-0.244,0.353-0.365l0.011-0.011c1.08-1.105,2.558-2.62,2.558-5.467s-1.479-4.361-2.558-5.467   c-0.902-0.925-1.447-1.483-1.447-2.739s0.545-1.814,1.447-2.739c0.128-0.131,0.256-0.262,0.382-0.396l0.96-1.012   c0.212-0.224,0.202-0.577-0.021-0.789l-2.024-1.919c-0.107-0.102-0.251-0.157-0.399-0.153c-0.147,0.004-0.288,0.066-0.39,0.174   l-0.96,1.013c-0.111,0.118-0.225,0.234-0.342,0.354c-1.08,1.106-2.558,2.621-2.558,5.467s1.478,4.361,2.558,5.468   C36.996,25.396,37.541,25.954,37.541,27.21z M36.896,14.312c0.117-0.12,0.234-0.24,0.35-0.362l0.575-0.607l1.216,1.151   l-0.576,0.607c-0.122,0.129-0.247,0.256-0.371,0.384c-0.946,0.97-1.764,1.808-1.764,3.519c0,1.711,0.817,2.548,1.764,3.519   c1.051,1.076,2.241,2.295,2.241,4.688c0,2.392-1.19,3.612-2.241,4.688l-0.011,0.011c-0.122,0.125-0.245,0.251-0.365,0.379   l-0.574,0.608l-1.218-1.149l0.574-0.609c0.128-0.135,0.259-0.269,0.389-0.402l0.008-0.008c0.946-0.97,1.764-1.807,1.764-3.518   s-0.817-2.548-1.764-3.519c-1.051-1.076-2.241-2.295-2.241-4.688C34.651,16.611,35.842,15.392,36.896,14.312z"></path><path d="M47.603,27.21c0,1.256-0.544,1.814-1.446,2.739c-0.138,0.141-0.274,0.281-0.409,0.423l-0.957,1.015   c-0.102,0.107-0.156,0.251-0.152,0.399c0.004,0.148,0.067,0.288,0.175,0.39l2.029,1.915c0.107,0.102,0.245,0.152,0.383,0.152   c0.147,0,0.296-0.059,0.405-0.175l0.958-1.015c0.118-0.125,0.239-0.249,0.363-0.376c1.079-1.106,2.558-2.62,2.558-5.467   s-1.478-4.361-2.558-5.467c-0.902-0.925-1.447-1.483-1.447-2.739s0.545-1.814,1.447-2.739c0.157-0.162,0.32-0.329,0.486-0.506   l0.95-1.021c0.102-0.108,0.155-0.252,0.149-0.4c-0.005-0.148-0.068-0.288-0.177-0.389l-2.042-1.902   c-0.108-0.101-0.251-0.154-0.4-0.149c-0.147,0.005-0.287,0.069-0.388,0.177l-0.951,1.021c-0.135,0.145-0.275,0.289-0.424,0.44   c-1.079,1.106-2.558,2.621-2.558,5.467s1.479,4.361,2.559,5.467C47.059,25.396,47.603,25.954,47.603,27.21z M46.954,14.316   c0.146-0.15,0.298-0.305,0.441-0.459l0.57-0.612l1.226,1.141l-0.571,0.612c-0.156,0.168-0.314,0.331-0.468,0.487   c-0.946,0.97-1.765,1.808-1.765,3.519s0.818,2.549,1.765,3.519c1.051,1.076,2.24,2.295,2.24,4.688s-1.189,3.612-2.243,4.691   c-0.125,0.128-0.25,0.256-0.373,0.387l-0.575,0.608l-1.217-1.149l0.574-0.609c0.131-0.138,0.264-0.274,0.396-0.41   c0.946-0.97,1.764-1.808,1.764-3.518c0-1.711-0.817-2.549-1.765-3.519c-1.05-1.076-2.24-2.295-2.24-4.688   S45.904,15.392,46.954,14.316z"></path><path d="M57.665,27.21c0,1.256-0.545,1.814-1.447,2.739c-0.137,0.141-0.273,0.281-0.408,0.423l-0.958,1.015   c-0.211,0.224-0.201,0.577,0.023,0.789l2.028,1.916c0.107,0.102,0.245,0.152,0.383,0.152c0.148,0,0.296-0.059,0.406-0.175   l0.957-1.014c0.119-0.125,0.239-0.249,0.364-0.376c1.079-1.106,2.558-2.621,2.558-5.467s-1.479-4.361-2.558-5.467   c-0.902-0.925-1.447-1.483-1.447-2.739s0.545-1.814,1.447-2.739c0.128-0.131,0.256-0.262,0.382-0.396l0.96-1.012   c0.102-0.107,0.156-0.251,0.152-0.399s-0.066-0.288-0.174-0.39l-2.025-1.919c-0.224-0.212-0.577-0.203-0.789,0.021l-0.959,1.013   c-0.111,0.118-0.226,0.234-0.343,0.354c-1.079,1.106-2.558,2.621-2.558,5.467s1.479,4.361,2.558,5.467   C57.12,25.396,57.665,25.954,57.665,27.21z M57.021,14.312c0.117-0.12,0.234-0.24,0.35-0.362l0.576-0.607l1.215,1.151l-0.575,0.607   c-0.123,0.129-0.247,0.256-0.371,0.384c-0.947,0.97-1.765,1.808-1.765,3.519c0,1.711,0.817,2.548,1.765,3.519   c1.05,1.076,2.24,2.295,2.24,4.688s-1.19,3.612-2.244,4.692c-0.125,0.128-0.25,0.256-0.372,0.386l-0.575,0.608l-1.217-1.149   l0.574-0.609c0.13-0.138,0.263-0.274,0.396-0.41c0.947-0.97,1.765-1.808,1.765-3.519s-0.817-2.549-1.765-3.519   c-1.05-1.076-2.24-2.295-2.24-4.688C54.776,16.611,55.967,15.392,57.021,14.312z"></path><path d="M35.346,59.472c-0.182,0.182-0.182,0.476,0,0.657l1.786,1.787c0.091,0.091,0.21,0.136,0.329,0.136s0.237-0.045,0.328-0.136   c0.182-0.182,0.182-0.477,0-0.658l-1.786-1.786C35.821,59.29,35.527,59.29,35.346,59.472z"></path><path d="M39.626,50.75h2.526c0.257,0,0.465-0.208,0.465-0.465s-0.208-0.465-0.465-0.465h-2.526c-0.257,0-0.465,0.208-0.465,0.465   S39.369,50.75,39.626,50.75z"></path><path d="M39.987,61.122c-0.257,0-0.465,0.208-0.465,0.465s0.208,0.465,0.465,0.465h2.526c0.257,0,0.465-0.208,0.465-0.465   s-0.208-0.465-0.465-0.465H39.987z"></path><path d="M46.256,54.492v2.526c0,0.257,0.209,0.465,0.465,0.465c0.257,0,0.466-0.208,0.466-0.465v-2.526   c0-0.257-0.209-0.466-0.466-0.466C46.465,54.026,46.256,54.235,46.256,54.492z"></path><path d="M46.137,52.399c0.091,0.091,0.21,0.137,0.329,0.137s0.237-0.046,0.328-0.137c0.182-0.181,0.182-0.476,0-0.657l-1.786-1.786   c-0.182-0.182-0.476-0.182-0.657,0s-0.182,0.476,0,0.657L46.137,52.399z"></path><path d="M46.393,59.216l-1.787,1.787c-0.182,0.182-0.182,0.476,0,0.657c0.091,0.091,0.21,0.137,0.329,0.137   s0.238-0.046,0.329-0.137l1.786-1.786c0.182-0.182,0.182-0.477,0-0.658S46.574,59.034,46.393,59.216z"></path><path d="M35.09,52.655c0.091,0.091,0.21,0.137,0.329,0.137c0.118,0,0.237-0.046,0.328-0.137l1.787-1.786   c0.182-0.182,0.182-0.477,0-0.657c-0.182-0.182-0.477-0.182-0.658,0l-1.786,1.786C34.908,52.18,34.908,52.474,35.09,52.655z"></path><path d="M35.884,57.38v-2.526c0-0.257-0.209-0.465-0.465-0.465c-0.257,0-0.466,0.208-0.466,0.465v2.526   c0,0.257,0.209,0.465,0.466,0.465C35.675,57.845,35.884,57.637,35.884,57.38z"></path><path d="M27.545,81.779c-0.386-0.015-0.71,0.283-0.726,0.668c-0.016,0.385,0.283,0.71,0.667,0.726   c6.658,0.276,13.362,0.415,20.067,0.415c6.704,0,13.408-0.139,20.066-0.415c0.385-0.016,0.684-0.341,0.668-0.726   c-0.017-0.385-0.341-0.684-0.727-0.668C54.285,82.331,40.821,82.331,27.545,81.779z"></path></g></svg>