<?xml version="1.0" encoding="UTF-8"?>
<svg width="92px" height="90px" viewBox="0 0 92 90" version="1.1" xmlns="http://www.w3.org/2000/svg" xmlns:xlink="http://www.w3.org/1999/xlink">
    <!-- Generator: Sketch 3.7.2 (28276) - http://www.bohemiancoding.com/sketch -->
    <title>Slice 1</title>
    <desc>Created with Sketch.</desc>
    <defs></defs>
    <g id="Page-1" stroke="none" stroke-width="1" fill="none" fill-rule="evenodd">
        <g id="enjoy">
            <rect id="Rectangle-path" x="1" y="0" width="90" height="90"></rect>
            <g id="Group" transform="translate(0.000000, 10.000000)" fill="#000000">
                <path d="M80.077,47.618 C83.646,47.618 86.55,44.714 86.55,41.144 C86.55,37.576 83.647,34.671 80.077,34.671 C76.507,34.671 73.603,37.575 73.603,41.144 C73.604,44.714 76.508,47.618 80.077,47.618 L80.077,47.618 Z M80.077,36.339 C82.727,36.339 84.883,38.495 84.883,41.145 C84.883,43.795 82.728,45.952 80.077,45.952 C77.426,45.952 75.27,43.796 75.27,41.145 C75.271,38.495 77.427,36.339 80.077,36.339 L80.077,36.339 Z" id="Shape"></path>
                <path d="M67.119,54.565 L67.259,53.531 L72.513,50.206 C74.633,51.98 77.285,52.948 80.077,52.948 C86.585,52.948 91.88,47.653 91.88,41.144 C91.88,34.636 86.585,29.341 80.077,29.341 C76.539,29.341 73.269,30.877 71.019,33.576 L69.97,33.576 L70.682,28.338 C70.727,28.005 70.626,27.67 70.406,27.417 C70.185,27.164 69.866,27.019 69.53,27.019 L17.577,27.019 C17.242,27.019 16.922,27.164 16.702,27.417 C16.481,27.669 16.38,28.005 16.426,28.338 L19.989,54.565 C20.641,59.355 24.265,63.138 28.944,64.047 L29.149,65.552 L1.283,65.552 C0.939,65.552 0.613,65.703 0.392,65.967 C0.171,66.231 0.078,66.578 0.138,66.916 C0.554,69.266 2.381,71.054 4.658,71.473 L5.008,74.045 C4.983,74.652 5.43,75.178 6.036,75.248 L22.009,77.093 C22.053,77.098 22.098,77.101 22.142,77.101 L64.966,77.101 C65.01,77.101 65.055,77.098 65.099,77.093 L81.072,75.248 C81.677,75.178 82.126,74.652 82.1,74.045 L82.45,71.473 C84.727,71.054 86.554,69.266 86.97,66.916 C87.031,66.578 86.937,66.23 86.716,65.967 C86.495,65.704 86.169,65.552 85.825,65.552 L57.959,65.552 L58.163,64.047 C62.843,63.139 66.466,59.355 67.119,54.565 L67.119,54.565 Z M65.028,52.681 L65.028,52.681 L64.814,54.252 C64.746,54.757 64.635,55.247 64.487,55.72 C64.427,55.911 64.359,56.099 64.287,56.283 C63.109,59.305 60.34,61.503 57,61.876 L56.64,61.916 C56.322,61.951 56.069,62.198 56.026,62.515 L55.977,62.874 L55.977,62.874 L55.906,63.399 L55.487,66.482 L31.621,66.482 L31.484,65.48 L31.13,62.874 C31.13,62.874 31.129,62.874 31.129,62.873 L31.08,62.515 C31.037,62.199 30.784,61.952 30.467,61.916 L30.107,61.876 L30.107,61.876 C29.988,61.862 29.87,61.847 29.753,61.828 C29.745,61.827 29.737,61.827 29.73,61.825 C29.422,61.778 29.121,61.713 28.824,61.635 C28.278,61.492 27.753,61.3 27.254,61.062 C27.251,61.061 27.248,61.059 27.245,61.057 C26.918,60.901 26.603,60.725 26.3,60.532 C24.161,59.163 22.653,56.902 22.292,54.253 L18.908,29.346 L36.372,29.346 L36.372,34.126 L34.767,34.126 C34.51,34.126 34.302,34.334 34.302,34.591 L34.302,36.263 L32.498,36.263 C32.312,36.263 32.135,36.337 32.005,36.468 L28.6,39.871 C28.469,40.001 28.396,40.179 28.396,40.363 L28.396,49.508 C28.396,49.694 28.469,49.87 28.6,50.001 L32.005,53.405 C32.135,53.536 32.313,53.609 32.498,53.609 L41.642,53.609 C41.828,53.609 42.005,53.536 42.135,53.405 L45.539,50.001 C45.67,49.87 45.744,49.693 45.744,49.508 L45.744,40.363 C45.744,40.178 45.67,40.001 45.539,39.871 L42.135,36.467 C42.005,36.336 41.827,36.262 41.642,36.262 L39.838,36.262 L39.838,34.59 C39.838,34.333 39.63,34.125 39.373,34.125 L37.768,34.125 L37.768,29.345 L68.2,29.345 L67.573,33.961 L65.028,52.681 L65.028,52.681 Z M41.354,37.657 L44.349,40.652 L44.349,49.218 L41.354,52.214 L32.787,52.214 L29.792,49.218 L29.792,40.652 L32.787,37.657 L41.354,37.657 L41.354,37.657 Z M38.907,36.262 L35.232,36.262 L35.232,35.055 L38.907,35.055 L38.907,36.262 L38.907,36.262 Z M71.58,35.902 C71.944,35.902 72.288,35.73 72.508,35.439 C74.319,33.042 77.077,31.667 80.077,31.667 C85.303,31.667 89.555,35.919 89.555,41.145 C89.555,46.372 85.303,50.624 80.077,50.624 C77.585,50.624 75.231,49.664 73.45,47.921 C73.064,47.544 72.471,47.482 72.015,47.77 L66.641,51.172 L68.715,35.903 L71.58,35.903 L71.58,35.902 Z M81.421,69.242 C80.84,69.242 80.348,69.672 80.27,70.248 L79.89,73.045 L64.899,74.776 L22.209,74.776 L7.218,73.045 L6.838,70.248 C6.759,69.672 6.268,69.242 5.686,69.242 C4.593,69.242 3.611,68.713 3.005,67.877 L5.088,67.877 L30.479,67.877 L56.628,67.877 L84.102,67.877 C83.496,68.713 82.514,69.242 81.421,69.242 L81.421,69.242 Z" id="Shape"></path>
                <path d="M33.541,16.21 C33.541,17.466 32.996,18.024 32.094,18.949 L32.085,18.957 C31.951,19.095 31.817,19.232 31.685,19.372 L30.728,20.387 C30.517,20.611 30.527,20.964 30.75,21.176 L32.779,23.091 C32.886,23.193 33.024,23.243 33.162,23.243 C33.31,23.243 33.458,23.184 33.568,23.068 L34.525,22.053 C34.641,21.93 34.759,21.809 34.878,21.688 L34.889,21.677 C35.969,20.572 37.447,19.057 37.447,16.21 C37.447,13.363 35.968,11.849 34.889,10.743 C33.987,9.818 33.442,9.26 33.442,8.004 C33.442,6.748 33.987,6.19 34.889,5.265 C35.017,5.134 35.145,5.003 35.271,4.869 L36.231,3.857 C36.443,3.633 36.433,3.28 36.21,3.068 L34.186,1.149 C34.079,1.047 33.935,0.992 33.787,0.996 C33.64,1 33.499,1.062 33.397,1.17 L32.437,2.183 C32.326,2.301 32.212,2.417 32.095,2.537 C31.015,3.643 29.537,5.158 29.537,8.004 C29.537,10.85 31.015,12.365 32.095,13.472 C32.996,14.396 33.541,14.954 33.541,16.21 L33.541,16.21 Z M32.896,3.312 C33.013,3.192 33.13,3.072 33.246,2.95 L33.821,2.343 L35.037,3.494 L34.461,4.101 C34.339,4.23 34.214,4.357 34.09,4.485 C33.144,5.455 32.326,6.293 32.326,8.004 C32.326,9.715 33.143,10.552 34.09,11.523 C35.141,12.599 36.331,13.818 36.331,16.211 C36.331,18.603 35.141,19.823 34.09,20.899 L34.079,20.91 C33.957,21.035 33.834,21.161 33.714,21.289 L33.14,21.897 L31.922,20.748 L32.496,20.139 C32.624,20.004 32.755,19.87 32.885,19.737 L32.893,19.729 C33.839,18.759 34.657,17.922 34.657,16.211 C34.657,14.5 33.84,13.663 32.893,12.692 C31.842,11.616 30.652,10.397 30.652,8.004 C30.651,5.611 31.842,4.392 32.896,3.312 L32.896,3.312 Z" id="Shape"></path>
                <path d="M43.603,16.21 C43.603,17.466 43.059,18.024 42.157,18.949 C42.019,19.09 41.883,19.23 41.748,19.372 L40.791,20.387 C40.689,20.494 40.635,20.638 40.639,20.786 C40.643,20.934 40.706,21.074 40.814,21.176 L42.843,23.091 C42.95,23.193 43.088,23.243 43.226,23.243 C43.373,23.243 43.522,23.184 43.631,23.068 L44.589,22.053 C44.707,21.928 44.828,21.804 44.952,21.677 C46.031,20.571 47.51,19.057 47.51,16.21 C47.51,13.363 46.032,11.849 44.952,10.743 C44.05,9.818 43.505,9.26 43.505,8.004 C43.505,6.748 44.05,6.19 44.952,5.265 C45.109,5.103 45.272,4.936 45.438,4.759 L46.388,3.738 C46.49,3.63 46.543,3.486 46.537,3.338 C46.532,3.19 46.469,3.05 46.36,2.949 L44.318,1.047 C44.21,0.946 44.067,0.893 43.918,0.898 C43.771,0.903 43.631,0.967 43.53,1.075 L42.579,2.096 C42.444,2.241 42.304,2.385 42.155,2.536 C41.076,3.642 39.597,5.157 39.597,8.003 C39.597,10.849 41.076,12.364 42.156,13.47 C43.059,14.396 43.603,14.954 43.603,16.21 L43.603,16.21 Z M42.954,3.316 C43.1,3.166 43.252,3.011 43.395,2.857 L43.965,2.245 L45.191,3.386 L44.62,3.998 C44.464,4.166 44.306,4.329 44.152,4.485 C43.206,5.455 42.387,6.293 42.387,8.004 C42.387,9.715 43.205,10.553 44.152,11.523 C45.203,12.599 46.392,13.818 46.392,16.211 C46.392,18.604 45.203,19.823 44.149,20.902 C44.024,21.03 43.899,21.158 43.776,21.289 L43.201,21.897 L41.984,20.748 L42.558,20.139 C42.689,20.001 42.822,19.865 42.954,19.729 C43.9,18.759 44.718,17.921 44.718,16.211 C44.718,14.5 43.901,13.662 42.953,12.692 C41.903,11.616 40.713,10.397 40.713,8.004 C40.713,5.611 41.904,4.392 42.954,3.316 L42.954,3.316 Z" id="Shape"></path>
                <path d="M53.665,16.21 C53.665,17.466 53.12,18.024 52.218,18.949 C52.081,19.09 51.945,19.23 51.81,19.372 L50.852,20.387 C50.641,20.611 50.651,20.964 50.875,21.176 L52.903,23.092 C53.01,23.194 53.148,23.244 53.286,23.244 C53.434,23.244 53.582,23.185 53.692,23.069 L54.649,22.055 C54.768,21.93 54.888,21.806 55.013,21.679 C56.092,20.573 57.571,19.058 57.571,16.212 C57.571,13.366 56.092,11.851 55.013,10.745 C54.111,9.82 53.566,9.262 53.566,8.006 C53.566,6.75 54.111,6.192 55.013,5.267 C55.141,5.136 55.269,5.005 55.395,4.871 L56.355,3.859 C56.457,3.752 56.511,3.608 56.507,3.46 C56.503,3.312 56.441,3.172 56.333,3.07 L54.308,1.151 C54.084,0.939 53.731,0.948 53.519,1.172 L52.56,2.185 C52.449,2.303 52.334,2.419 52.217,2.539 C51.138,3.645 49.659,5.16 49.659,8.006 C49.659,10.852 51.138,12.367 52.217,13.473 C53.12,14.396 53.665,14.954 53.665,16.21 L53.665,16.21 Z M53.021,3.312 C53.138,3.192 53.255,3.072 53.371,2.95 L53.947,2.343 L55.162,3.494 L54.587,4.101 C54.464,4.23 54.34,4.357 54.216,4.485 C53.269,5.455 52.451,6.293 52.451,8.004 C52.451,9.715 53.268,10.552 54.216,11.523 C55.266,12.599 56.456,13.818 56.456,16.211 C56.456,18.604 55.266,19.823 54.212,20.903 C54.087,21.031 53.962,21.159 53.84,21.289 L53.265,21.897 L52.048,20.748 L52.622,20.139 C52.752,20.001 52.885,19.865 53.018,19.729 C53.965,18.759 54.783,17.921 54.783,16.21 C54.783,14.499 53.966,13.661 53.018,12.691 C51.968,11.615 50.778,10.396 50.778,8.003 C50.776,5.611 51.967,4.392 53.021,3.312 L53.021,3.312 Z" id="Shape"></path>
                <path d="M31.346,48.472 C31.164,48.654 31.164,48.948 31.346,49.129 L33.132,50.916 C33.223,51.007 33.342,51.052 33.461,51.052 C33.58,51.052 33.698,51.007 33.789,50.916 C33.971,50.734 33.971,50.439 33.789,50.258 L32.003,48.472 C31.821,48.29 31.527,48.29 31.346,48.472 L31.346,48.472 Z" id="Shape"></path>
                <path d="M35.626,39.75 L38.152,39.75 C38.409,39.75 38.617,39.542 38.617,39.285 C38.617,39.028 38.409,38.82 38.152,38.82 L35.626,38.82 C35.369,38.82 35.161,39.028 35.161,39.285 C35.161,39.542 35.369,39.75 35.626,39.75 L35.626,39.75 Z" id="Shape"></path>
                <path d="M35.987,50.122 C35.73,50.122 35.522,50.33 35.522,50.587 C35.522,50.844 35.73,51.052 35.987,51.052 L38.513,51.052 C38.77,51.052 38.978,50.844 38.978,50.587 C38.978,50.33 38.77,50.122 38.513,50.122 L35.987,50.122 L35.987,50.122 Z" id="Shape"></path>
                <path d="M42.256,43.492 L42.256,46.018 C42.256,46.275 42.465,46.483 42.721,46.483 C42.978,46.483 43.187,46.275 43.187,46.018 L43.187,43.492 C43.187,43.235 42.978,43.026 42.721,43.026 C42.465,43.026 42.256,43.235 42.256,43.492 L42.256,43.492 Z" id="Shape"></path>
                <path d="M42.137,41.399 C42.228,41.49 42.347,41.536 42.466,41.536 C42.585,41.536 42.703,41.49 42.794,41.399 C42.976,41.218 42.976,40.923 42.794,40.742 L41.008,38.956 C40.826,38.774 40.532,38.774 40.351,38.956 C40.17,39.138 40.169,39.432 40.351,39.613 L42.137,41.399 L42.137,41.399 Z" id="Shape"></path>
                <path d="M42.393,48.216 L40.606,50.003 C40.424,50.185 40.424,50.479 40.606,50.66 C40.697,50.751 40.816,50.797 40.935,50.797 C41.054,50.797 41.173,50.751 41.264,50.66 L43.05,48.874 C43.232,48.692 43.232,48.397 43.05,48.216 C42.868,48.035 42.574,48.034 42.393,48.216 L42.393,48.216 Z" id="Shape"></path>
                <path d="M31.09,41.655 C31.181,41.746 31.3,41.792 31.419,41.792 C31.537,41.792 31.656,41.746 31.747,41.655 L33.534,39.869 C33.716,39.687 33.716,39.392 33.534,39.212 C33.352,39.03 33.057,39.03 32.876,39.212 L31.09,40.998 C30.908,41.18 30.908,41.474 31.09,41.655 L31.09,41.655 Z" id="Shape"></path>
                <path d="M31.884,46.38 L31.884,43.854 C31.884,43.597 31.675,43.389 31.419,43.389 C31.162,43.389 30.953,43.597 30.953,43.854 L30.953,46.38 C30.953,46.637 31.162,46.845 31.419,46.845 C31.675,46.845 31.884,46.637 31.884,46.38 L31.884,46.38 Z" id="Shape"></path>
                <path d="M23.545,70.779 C23.159,70.764 22.835,71.062 22.819,71.447 C22.803,71.832 23.102,72.157 23.486,72.173 C30.144,72.449 36.848,72.588 43.553,72.588 C50.257,72.588 56.961,72.449 63.619,72.173 C64.004,72.157 64.303,71.832 64.287,71.447 C64.27,71.062 63.946,70.763 63.56,70.779 C50.285,71.331 36.821,71.331 23.545,70.779 L23.545,70.779 Z" id="Shape"></path>
            </g>
        </g>
    </g>
</svg>