<svg xmlns="http://www.w3.org/2000/svg" xmlns:xlink="http://www.w3.org/1999/xlink" version="1.1" x="0px" y="0px" viewBox="0 0 100 100" enable-background="new 0 0 100 100" xml:space="preserve"><path fill="none" stroke="#000000" stroke-miterlimit="10" d="M51.843,9.709"></path><path fill="none" stroke="#000000" stroke-miterlimit="10" d="M51.843,9.709"></path><path fill-rule="evenodd" clip-rule="evenodd" d="M48.752,79.817c18.534,0,33.564-15.026,33.564-33.567  c0-18.538-15.03-33.565-33.564-33.565c-18.538,0-33.567,15.028-33.567,33.565C15.185,64.791,30.214,79.817,48.752,79.817z   M53.675,68.042h-9.523V33.137h9.523V68.042z M48.935,19.461c3.455,0,5.173,1.554,5.173,4.652c0,1.484-0.433,2.628-1.29,3.453  c-0.861,0.823-2.16,1.234-3.883,1.234c-3.463,0-5.188-1.563-5.188-4.687C43.747,21.016,45.472,19.461,48.935,19.461z"></path></svg>