<svg xmlns="http://www.w3.org/2000/svg" xmlns:xlink="http://www.w3.org/1999/xlink" version="1.1" x="0px" y="0px" viewBox="0 0 100 100" enable-background="new 0 0 100 100" xml:space="preserve"><g><g><path d="M50,14.306c-19.713,0-35.693,15.982-35.693,35.693c0,19.713,15.98,35.694,35.693,35.694    c19.711,0,35.693-15.981,35.693-35.694C85.693,30.289,69.711,14.306,50,14.306z M50,82.125c-17.715,0-32.125-14.41-32.125-32.125    c0-17.714,14.41-32.124,32.125-32.124S82.123,32.286,82.123,50C82.123,67.714,67.715,82.125,50,82.125z"></path><polygon points="43.172,60.472 33.426,50.535 30.879,53.035 43.146,65.544 68.137,40.554 65.613,38.031   "></polygon></g></g></svg>